<svg width="20" height="20" viewBox="0 0 20 20" fill="none" xmlns="http://www.w3.org/2000/svg">
<g id="icon/emergency">
<g id="Vector">
<path d="M10.6426 2.31568C10.6426 1.95722 10.352 1.66663 9.99352 1.66663C9.63506 1.66663 9.34447 1.95722 9.34447 2.31568V4.49406C9.34447 4.85252 9.63506 5.14311 9.99352 5.14311C10.352 5.14311 10.6426 4.85252 10.6426 4.49406V2.31568Z" fill="white"/>
<path d="M3.4211 3.39388C3.15627 3.15231 2.74575 3.17116 2.50417 3.43599C2.2626 3.70082 2.28145 4.11135 2.54628 4.35292L4.34873 5.99709C4.61356 6.23867 5.02409 6.21981 5.26566 5.95498C5.50724 5.69015 5.48839 5.27963 5.22355 5.03805L3.4211 3.39388Z" fill="white"/>
<path d="M17.4406 4.35291C17.7054 4.11133 17.7243 3.70081 17.4827 3.43598C17.2411 3.17115 16.8306 3.15231 16.5658 3.39389L14.7634 5.03806C14.4986 5.27964 14.4797 5.69017 14.7213 5.95499C14.9629 6.21982 15.3734 6.23866 15.6382 5.99708L17.4406 4.35291Z" fill="white"/>
<path d="M14.8892 12.0833C15.448 12.0833 15.8481 11.5446 15.6875 11.0093L14.6864 7.67221C14.5805 7.31932 14.2557 7.07766 13.8873 7.07766H6.11865C5.75023 7.07766 5.42543 7.31932 5.31956 7.6722L4.31844 11.0093C4.15786 11.5446 4.55794 12.0833 5.11679 12.0833H14.8892Z" fill="white"/>
<path d="M16.6841 17.5002H3.32251C2.8158 17.5002 2.56245 17.5002 2.39335 17.3945C2.24526 17.3019 2.13743 17.157 2.09132 16.9886C2.03866 16.7962 2.11146 16.5535 2.25706 16.0682L2.79868 14.2628C2.87661 14.0031 2.91557 13.8732 2.98936 13.7745C3.07013 13.6665 3.18056 13.5844 3.3072 13.538C3.42289 13.4957 3.5585 13.4957 3.82971 13.4957H16.1769C16.4481 13.4957 16.5837 13.4957 16.6994 13.538C16.8261 13.5844 16.9365 13.6665 17.0173 13.7745C17.091 13.8732 17.13 14.0031 17.2079 14.2628L17.7496 16.0682C17.8952 16.5535 17.968 16.7962 17.9153 16.9886C17.8692 17.157 17.7614 17.3019 17.6133 17.3945C17.4442 17.5002 17.1908 17.5002 16.6841 17.5002Z" fill="white"/>
</g>
</g>
</svg>
