<svg width="170" height="48" viewBox="0 0 170 48" fill="none" xmlns="http://www.w3.org/2000/svg">
<g clip-path="url(#clip0_2268_19092)">
<path d="M48 24C48 28.7467 46.5924 33.3869 43.9553 37.3337C41.3181 41.2805 37.5698 44.3566 33.1844 46.1731C28.799 47.9896 23.9734 48.4649 19.3178 47.5388C14.6623 46.6128 10.3859 44.327 7.02945 40.9706C3.67299 37.6141 1.38721 33.3377 0.461164 28.6822C-0.464881 24.0266 0.0103989 19.201 1.8269 14.8156C3.64341 10.4302 6.71955 6.68188 10.6663 4.04473C14.6131 1.40758 19.2533 0 24 0C30.3652 0 36.4697 2.52856 40.9706 7.02944C45.4714 11.5303 48 17.6348 48 24Z" fill="white"/>
<path d="M35.2793 22.3293C34.3935 21.7138 33.3914 21.2856 32.3344 21.0708C31.2773 20.856 30.1875 20.8593 29.1318 21.0803C28.076 21.3013 27.0765 21.7355 26.1943 22.3562C25.3122 22.977 24.566 23.7712 24.0015 24.6903C23.1775 25.9869 21.9942 27.0159 20.5958 27.6518C19.1973 28.2877 17.6441 28.5031 16.1254 28.2718C14.6067 28.0405 13.188 27.3724 12.0423 26.3489C10.8966 25.3255 10.0734 23.9909 9.67285 22.5078C9.67034 22.4808 9.67034 22.4536 9.67285 22.4267C9.67634 22.3943 9.67634 22.3616 9.67285 22.3293C9.37424 21.3047 9.23736 20.2399 9.26717 19.1731C9.26717 12.0656 16.5694 4.15485 27.0603 4.15485C37.8189 4.15485 43.9771 12.3415 45.5674 16.8932C45.5674 16.8039 45.5106 16.7309 45.4862 16.6498C43.7773 11.5354 40.3 7.19835 35.6795 4.41835C31.059 1.63835 25.5984 0.597746 20.2793 1.48361C14.9602 2.36947 10.1316 5.12369 6.6615 9.25113C3.19139 13.3786 1.30743 18.6085 1.34831 24.0007C1.34831 35.1812 9.41322 44.7471 20.6019 44.7471C29.5268 44.7471 35.5146 39.7492 38.2651 32.8526C39.0487 31.0181 39.1797 28.9705 38.6363 27.0511C38.093 25.1317 36.9082 23.4566 35.2793 22.3049" fill="#003964"/>
<path d="M45.6453 17.3305C44.3146 12.8924 38.1321 4.15405 27.0002 4.15405C16.5012 4.15405 9.20713 12.0648 9.20713 19.1723C9.17732 20.2391 9.31419 21.3039 9.61281 22.3285C9.48248 21.7973 9.41441 21.2527 9.40997 20.7058C9.40997 13.3062 16.8177 8.17839 24.4363 8.17839C26.887 8.17839 29.3136 8.66108 31.5777 9.5989C33.8418 10.5367 35.899 11.9113 37.6318 13.6441C39.3647 15.377 40.7393 17.4342 41.6771 19.6983C42.6149 21.9624 43.0976 24.389 43.0976 26.8397C43.1043 30.6716 42.0416 34.4294 40.0292 37.6903C38.0167 40.9512 35.1343 43.5859 31.7061 45.2981C37.1665 43.3046 41.655 39.294 44.2479 34.0915C46.8408 28.889 47.3409 22.8905 45.6453 17.3305Z" fill="#ED193A"/>
<path d="M59.1493 15.9358V13.6072H71.6524V15.9358H66.3542L71.8796 21.5585L70.127 23.1812L65.5023 18.3536L60.9749 23.3516L59.125 21.7289L64.6017 15.952L59.1493 15.9358ZM61.2021 24.3414H78.3055V30.2968H63.9039V32.1467H78.557V34.3455H61.2021V28.2603H75.6037V26.4591H61.2021V24.3414ZM75.6037 12.9824H78.3055V23.311H75.6037V12.9824Z" fill="#58595B"/>
<path d="M94.2067 24.0088H82.8477V13.4611H85.5251V16.309H91.5941V13.4611H94.2229L94.2067 24.0088ZM91.5779 18.5889H85.5089V21.7613H91.5779V18.5889ZM99.2614 30.1346C99.2653 30.8494 99.1101 31.5561 98.8071 32.2035C98.5136 32.8349 98.1066 33.407 97.6063 33.8911C97.0784 34.3802 96.4651 34.768 95.7969 35.0352C95.102 35.3208 94.3576 35.4669 93.6063 35.4652C92.1052 35.4639 90.6586 34.9026 89.5495 33.8911C89.0492 33.407 88.6421 32.8349 88.3487 32.2035C88.0482 31.5555 87.8958 30.8488 87.9024 30.1346C87.8976 29.4205 88.05 28.7142 88.3487 28.0656C88.6394 27.4278 89.0467 26.85 89.5495 26.3617C90.0816 25.8682 90.7006 25.4776 91.375 25.2096C92.0736 24.9273 92.8204 24.784 93.5738 24.7877C94.3247 24.7832 95.069 24.9265 95.7645 25.2096C96.433 25.4797 97.0463 25.8702 97.5738 26.3617C98.0766 26.85 98.4839 27.4278 98.7746 28.0656C99.0873 28.711 99.2535 29.4175 99.2614 30.1346ZM96.6083 30.1346C96.6117 29.7398 96.5334 29.3487 96.3784 28.9857C96.2234 28.6227 95.9951 28.2956 95.7077 28.025C95.4318 27.7413 95.1011 27.5166 94.7356 27.3645C94.3702 27.2125 93.9777 27.1363 93.5819 27.1406C92.79 27.1406 92.0306 27.4552 91.4707 28.0152C90.9107 28.5751 90.5961 29.3346 90.5961 30.1264C90.5961 30.9183 90.9107 31.6778 91.4707 32.2377C92.0306 32.7977 92.79 33.1122 93.5819 33.1122C93.9841 33.1174 94.3831 33.0402 94.7543 32.8853C95.1254 32.7304 95.461 32.5012 95.7402 32.2116C96.0226 31.9407 96.2456 31.6139 96.3951 31.2522C96.5446 30.8904 96.6172 30.5015 96.6083 30.1102V30.1346ZM98.4095 12.9824H101.111V24.5362H98.4095V21.9074H95.229V19.7086H98.4095V17.4124H95.229V15.1812H98.4095V12.9824Z" fill="#58595B"/>
<path d="M118.61 23.6599V26.0372H104.484V23.6599H108.906V18.7918H111.584V23.6599H118.61ZM114.732 21.5828V15.7816H105.474V13.4368H117.426V21.5504L114.732 21.5828ZM106.034 34.3861V27.8952H108.72V32.0494H123.373V34.4185L106.034 34.3861ZM122.983 27.2867H120.282V12.9824H122.983V18.8323H125.758V21.3151H122.951L122.983 27.2867Z" fill="#58595B"/>
<path d="M140.04 31.7654H128.438V21.81H137.119V16.7066H128.438V14.3374H139.797V24.163H131.115V29.3881H140.04V31.7654ZM144.016 12.9824H146.717V34.7674H144.016V12.9824Z" fill="#58595B"/>
<path d="M150.297 17.1361V14.8562H155.392V12.7305H158.273V14.8562H163.141V17.1361H157.883L163.319 22.7183L161.518 24.341L156.82 19.4729L152.195 24.7467L150.346 23.0185L155.782 17.1361H150.297ZM167.676 30.1179C167.68 30.8327 167.525 31.5394 167.222 32.1869C166.928 32.8182 166.521 33.3903 166.021 33.8745C165.493 34.3636 164.88 34.7514 164.212 35.0185C163.517 35.3041 162.772 35.4502 162.021 35.4485C160.52 35.4472 159.073 34.8859 157.964 33.8745C157.464 33.3903 157.057 32.8182 156.763 32.1869C156.46 31.5394 156.305 30.8327 156.309 30.1179C156.307 29.4032 156.462 28.6969 156.763 28.0489C157.054 27.4112 157.461 26.8333 157.964 26.3451C158.786 25.5857 159.805 25.0745 160.905 24.8706C162.005 24.6667 163.14 24.7785 164.179 25.1929C164.848 25.463 165.461 25.8535 165.989 26.3451C166.491 26.8333 166.899 27.4112 167.189 28.0489C167.504 28.6992 167.671 29.4115 167.676 30.1341V30.1179ZM165.023 30.1179C165.026 29.7232 164.948 29.3321 164.793 28.969C164.638 28.606 164.41 28.2789 164.122 28.0084C163.846 27.7246 163.516 27.4999 163.15 27.3479C162.785 27.1959 162.392 27.1197 161.997 27.124C161.603 27.1181 161.213 27.1936 160.849 27.3458C160.486 27.4979 160.159 27.7235 159.887 28.0084C159.602 28.2805 159.376 28.6081 159.223 28.9709C159.069 29.3337 158.992 29.724 158.995 30.1179C158.99 30.5108 159.067 30.9003 159.221 31.262C159.375 31.6236 159.601 31.9496 159.887 32.2193C160.16 32.5015 160.489 32.7248 160.851 32.8755C161.214 33.0262 161.604 33.1011 161.997 33.0956C162.392 33.0995 162.783 33.024 163.149 32.8735C163.514 32.7229 163.845 32.5005 164.122 32.2193C164.412 31.9503 164.641 31.6235 164.797 31.2601C164.952 30.8967 165.029 30.5048 165.023 30.1098V30.1179ZM166.824 25.1686V20.2193H163.019V17.8501H166.824V12.982H169.526V25.1524L166.824 25.1686Z" fill="#58595B"/>
</g>
<defs>
<clipPath id="clip0_2268_19092">
<rect width="169.525" height="48" fill="white"/>
</clipPath>
</defs>
</svg>
