<svg width="22" height="21" viewBox="0 0 22 21" fill="none" xmlns="http://www.w3.org/2000/svg">
<g id="icon/menu">
<path id="Vector" fill-rule="evenodd" clip-rule="evenodd" d="M2.19922 6.5002C2.19922 6.05837 2.55739 5.7002 2.99922 5.7002H20.9992C21.441 5.7002 21.7992 6.05837 21.7992 6.5002C21.7992 6.94202 21.441 7.3002 20.9992 7.3002H2.99922C2.55739 7.3002 2.19922 6.94202 2.19922 6.5002ZM2.19922 12.5002C2.19922 12.0584 2.55739 11.7002 2.99922 11.7002H20.9992C21.441 11.7002 21.7992 12.0584 21.7992 12.5002C21.7992 12.942 21.441 13.3002 20.9992 13.3002H2.99922C2.55739 13.3002 2.19922 12.942 2.19922 12.5002ZM2.99922 17.7002C2.55739 17.7002 2.19922 18.0584 2.19922 18.5002C2.19922 18.942 2.55739 19.3002 2.99922 19.3002H20.9992C21.441 19.3002 21.7992 18.942 21.7992 18.5002C21.7992 18.0584 21.441 17.7002 20.9992 17.7002H2.99922Z" fill="#33363D"/>
</g>
</svg>
