<svg width="21" height="21" viewBox="0 0 21 21" fill="none" xmlns="http://www.w3.org/2000/svg">
<g id="icon/search">
<path id="Vector" fill-rule="evenodd" clip-rule="evenodd" d="M3.83333 9.5837C3.83333 6.40806 6.4077 3.8337 9.58333 3.8337C12.759 3.8337 15.3333 6.40806 15.3333 9.5837C15.3333 11.0946 14.7506 12.4694 13.7976 13.4956C13.7346 13.5269 13.6755 13.5688 13.623 13.6213C13.5704 13.6739 13.5285 13.7331 13.4971 13.7962C12.4707 14.7502 11.0952 15.3337 9.58333 15.3337C6.4077 15.3337 3.83333 12.7593 3.83333 9.5837ZM14.0996 15.0408C12.8737 16.0565 11.2998 16.667 9.58333 16.667C5.67132 16.667 2.5 13.4957 2.5 9.5837C2.5 5.67168 5.67132 2.50037 9.58333 2.50037C13.4953 2.50037 16.6667 5.67168 16.6667 9.5837C16.6667 11.2991 16.0569 12.8721 15.0422 14.0978L17.8065 16.862C18.0668 17.1223 18.0668 17.5445 17.8065 17.8048C17.5461 18.0652 17.124 18.0652 16.8637 17.8048L14.0996 15.0408Z" fill="#33363D"/>
</g>
</svg>
