<svg width="20" height="20" viewBox="0 0 20 20" fill="none" xmlns="http://www.w3.org/2000/svg">
<g id="icon/setting">
<path id="Vector" fill-rule="evenodd" clip-rule="evenodd" d="M9.1835 1.33337C8.88065 1.33337 8.61586 1.5375 8.53878 1.83037L8.11675 3.43405L6.69094 4.03508L5.64176 3.1019C5.37795 2.86726 4.97695 2.87898 4.72729 3.12864L3.12729 4.72864C2.88573 4.9702 2.86586 5.35528 3.08128 5.62042L3.99523 6.74535L3.40916 8.18628L1.84718 8.55082C1.54547 8.62124 1.33203 8.89022 1.33203 9.20004V10.8C1.33203 11.1006 1.53316 11.364 1.82312 11.4432L3.43122 11.8822L4.03336 13.3106L3.10106 14.3564C2.86593 14.6202 2.87743 15.0216 3.12729 15.2714L4.72729 16.8714C4.96913 17.1133 5.35474 17.1329 5.61985 16.9168L6.74508 15.9998L8.15214 16.5787L8.55232 18.1633C8.62708 18.4593 8.89338 18.6667 9.1987 18.6667H10.7987C11.1038 18.6667 11.37 18.4595 11.445 18.1637L11.8464 16.5785L13.2967 15.978C13.4445 16.1007 13.6216 16.2524 13.7956 16.4038C13.9459 16.5347 14.0857 16.658 14.1879 16.7487L14.3093 16.8567L14.3536 16.8963C14.6172 17.1328 15.0197 17.1219 15.2701 16.8714L16.8701 15.2714C17.1154 15.0261 17.1316 14.6336 16.9072 14.3689L15.983 13.2788L16.5788 11.8401L18.1665 11.427C18.4602 11.3506 18.6653 11.0854 18.6653 10.7818L18.6654 9.20008C18.6654 8.89515 18.4585 8.62908 18.163 8.55394L16.5847 8.1526L15.9898 6.71612L16.9078 5.63049C17.1316 5.36579 17.1152 4.97374 16.8701 4.72864L15.2701 3.12864C15.024 2.88258 14.6301 2.86716 14.3656 3.09323L13.2871 4.01485L11.8054 3.40549L11.3917 1.83066C11.3148 1.53765 11.0499 1.33337 10.7469 1.33337H9.1835ZM9.32269 4.09061L9.69742 2.66671H10.2328L10.6001 4.06521C10.6532 4.26736 10.7981 4.4329 10.9914 4.5124L13.1569 5.40297C13.3883 5.49811 13.6534 5.45573 13.8436 5.29321L14.7632 4.50733L15.4937 5.23785L14.7094 6.16544C14.5483 6.35595 14.5071 6.62046 14.6025 6.85096L15.4807 8.97144C15.5611 9.16571 15.7285 9.31064 15.9323 9.36247L17.332 9.71839L17.332 10.2664L15.9219 10.6333C15.7197 10.6859 15.5538 10.8303 15.4739 11.0234L14.5955 13.1445C14.4999 13.3753 14.5414 13.6401 14.7029 13.8307L15.4931 14.7628L14.7707 15.4852L14.671 15.3981C14.374 15.1396 13.9987 14.8189 13.7905 14.6701C13.6033 14.5363 13.3603 14.5085 13.1477 14.5965L11.0272 15.4747C10.8327 15.5552 10.6877 15.7229 10.636 15.9269L10.2798 17.3334H9.71793L9.36267 15.9266C9.31096 15.7219 9.16526 15.5537 8.96993 15.4733L6.88526 14.6157C6.65906 14.5227 6.40007 14.561 6.21047 14.7155L5.24432 15.5029L4.51523 14.7738L5.30893 13.8834C5.48015 13.6914 5.52556 13.4179 5.42561 13.1808L4.5339 11.0655C4.45439 10.8769 4.29263 10.7352 4.09516 10.6813L2.66536 10.291V9.72903L4.04821 9.4063C4.25895 9.35712 4.43271 9.20871 4.51424 9.00825L5.37893 6.8823C5.47059 6.65694 5.43222 6.39955 5.27881 6.21074L4.49525 5.2463L5.22548 4.51607L6.11917 5.31095C6.31121 5.48176 6.58435 5.52696 6.82118 5.42713L8.93693 4.53526C9.12754 4.45492 9.27005 4.29065 9.32269 4.09061ZM10 6.83346C8.25106 6.83346 6.83333 8.25118 6.83333 10.0001C6.83333 11.7491 8.25106 13.1668 10 13.1668C11.7489 13.1668 13.1667 11.7491 13.1667 10.0001C13.1667 8.25118 11.7489 6.83346 10 6.83346ZM8.16667 10.0001C8.16667 8.98756 8.98744 8.16679 10 8.16679C11.0126 8.16679 11.8333 8.98756 11.8333 10.0001C11.8333 11.0127 11.0126 11.8335 10 11.8335C8.98744 11.8335 8.16667 11.0127 8.16667 10.0001Z" fill="#33363D"/>
</g>
</svg>
