<svg width="64" height="64" viewBox="0 0 64 64" fill="none" xmlns="http://www.w3.org/2000/svg">
<path d="M0.8 32C0.8 14.7687 14.7687 0.8 32 0.8C49.2313 0.8 63.2 14.7687 63.2 32C63.2 49.2313 49.2313 63.2 32 63.2C14.7687 63.2 0.8 49.2313 0.8 32Z" fill="white"/>
<path d="M0.8 32C0.8 14.7687 14.7687 0.8 32 0.8C49.2313 0.8 63.2 14.7687 63.2 32C63.2 49.2313 49.2313 63.2 32 63.2C14.7687 63.2 0.8 49.2313 0.8 32Z" stroke="#CDD1D5" stroke-width="1.6"/>
<path fill-rule="evenodd" clip-rule="evenodd" d="M26.2505 44.3763C26.7234 44.9017 27.5327 44.9444 28.0581 44.4715L40.8581 32.9519C41.1279 32.7092 41.2819 32.3634 41.2819 32.0005C41.2819 31.6377 41.1279 31.2919 40.8582 31.0491L28.0582 19.5283C27.5328 19.0554 26.7234 19.098 26.2505 19.6234C25.7776 20.1488 25.8201 20.9582 26.3456 21.4311L38.0885 32.0004L26.3456 42.5686C25.8202 43.0415 25.7776 43.8508 26.2505 44.3763Z" fill="#33363D"/>
</svg>
