<svg width="24" height="16" viewBox="0 0 24 16" fill="none" xmlns="http://www.w3.org/2000/svg">
<g id="value" clip-path="url(#clip0_9118_62011)">
<path id="Vector" d="M0 0H24V16H0V0Z" fill="white"/>
<g id="Group">
<path id="Vector_2" d="M8.67188 5.78101C9.26036 4.89834 10.1754 4.2856 11.2157 4.07757C12.2559 3.86955 13.3362 4.08329 14.2189 4.67176C15.1016 5.26024 15.7144 6.17525 15.9224 7.21551C16.1304 8.25576 15.9167 9.33605 15.3282 10.2187L8.67188 5.78101Z" fill="#D0303C"/>
<path id="Vector_3" d="M8.67202 5.78115C8.08353 6.66382 7.86979 7.74411 8.07781 8.78437C8.28583 9.82463 8.89858 10.7396 9.78126 11.3281C10.6639 11.9166 11.7442 12.1303 12.7845 11.9223C13.8248 11.7143 14.7398 11.1016 15.3283 10.2189C15.6225 9.77756 15.7294 9.23741 15.6254 8.71728C15.5214 8.19715 15.215 7.73964 14.7737 7.4454C14.3323 7.15116 13.7922 7.04429 13.272 7.1483C12.7519 7.25231 12.2944 7.55869 12.0002 8.00002L8.67202 5.78115Z" fill="#134A9D"/>
<path id="Vector_4" d="M12.0001 8.00002C12.6128 7.08098 12.3645 5.83924 11.4454 5.22651C10.5264 4.61379 9.28467 4.8621 8.67194 5.78113C8.05921 6.70017 8.30752 7.9419 9.22656 8.55463C10.1456 9.16736 11.3873 8.91905 12.0001 8.00002Z" fill="#D0303C"/>
</g>
<g id="Vector_5">
<path d="M3.67977 4.85664L5.89858 1.52844L6.45328 1.89824L4.23447 5.22644L3.67977 4.85664ZM4.51182 5.41134L6.73063 2.08314L7.28533 2.45294L5.06652 5.78114L4.51182 5.41134ZM5.34387 5.96604L7.56268 2.63784L8.11738 3.00764L5.89858 6.33584L5.34387 5.96604Z" fill="black"/>
<path d="M19.3038 12.6686L20.3207 11.1433L19.766 10.7735L18.7491 12.2988L19.3038 12.6686Z" fill="black"/>
<path d="M18.4718 12.1139L19.4887 10.5886L18.934 10.2188L17.9171 11.7441L18.4718 12.1139Z" fill="black"/>
<path d="M17.7322 12.0214L18.2869 12.3912L17.2699 13.9168L16.7152 13.547L17.7322 12.0214Z" fill="black"/>
<path d="M17.6397 11.5592L18.6566 10.0339L18.1019 9.66405L17.085 11.1894L17.6397 11.5592Z" fill="black"/>
<path d="M16.9001 11.4667L17.4548 11.8365L16.4378 13.3621L15.8831 12.9923L16.9001 11.4667Z" fill="black"/>
<path d="M18.5642 12.5761L19.1189 12.9459L18.1019 14.4715L17.5472 14.1017L18.5642 12.5761Z" fill="black"/>
<path d="M17.4547 4.16349L16.4377 2.63801L15.883 3.00781L16.9 4.53329L17.4547 4.16349Z" fill="black"/>
<path d="M17.0849 4.81064L18.1018 6.33601L18.6565 5.96621L17.6396 4.44084L17.0849 4.81064Z" fill="black"/>
<path d="M18.9339 5.78131L16.7151 2.45311L17.2698 2.08331L19.4886 5.41151L18.9339 5.78131Z" fill="black"/>
<path d="M19.7659 5.22661L18.749 3.70121L19.3037 3.33141L20.3206 4.85681L19.7659 5.22661Z" fill="black"/>
<path d="M19.1188 3.05406L18.5641 3.42386L17.5471 1.89841L18.1018 1.52861L19.1188 3.05406Z" fill="black"/>
<path d="M3.67969 11.1434L5.89849 14.4716L6.45319 14.1018L4.23439 10.7736L3.67969 11.1434Z" fill="black"/>
<path d="M5.7136 12.3915L6.73054 13.9169L7.28524 13.5471L6.2683 12.0217L5.7136 12.3915Z" fill="black"/>
<path d="M5.5287 12.1142L6.0834 11.7444L5.06644 10.2189L4.51174 10.5887L5.5287 12.1142Z" fill="black"/>
<path d="M5.34379 10.034L7.56259 13.3622L8.11729 12.9924L5.89849 9.66421L5.34379 10.034Z" fill="black"/>
</g>
</g>
<defs>
<clipPath id="clip0_9118_62011">
<rect width="24" height="16" fill="white"/>
</clipPath>
</defs>
</svg>
